<svg id="Layer_1" data-name="Layer 1" xmlns="http://www.w3.org/2000/svg" viewBox="0 0 52 51.8"><g id="Accessibility"><path d="M10.22,16.87l31.46-.05A1.81,1.81,0,0,1,42.25,18a1.85,1.85,0,0,1-.47,1.37,51.11,51.11,0,0,1-6.85,2.23c-1.69.41-3.29.72-4.77.94l-.05,8,2.6,11a2.53,2.53,0,0,1-1.14,2,2.39,2.39,0,0,1-2.45,0l-3.26-9.83L22.5,43.05a2.31,2.31,0,0,1-2.55.47,2.34,2.34,0,0,1-1.28-2.6l2.46-10.16.05-8.17a45.61,45.61,0,0,1-4.59-1,46.48,46.48,0,0,1-6.37-2.27,1.89,1.89,0,0,1-.48-1.18A1.87,1.87,0,0,1,10.22,16.87Z"/><circle cx="26" cy="11.7" r="3.8"/></g></svg>