<svg id="Layer_1" data-name="Layer 1" xmlns="http://www.w3.org/2000/svg" viewBox="0 0 52 51.8"><defs><style>.cls-1{stroke:#000;stroke-linecap:round;stroke-miterlimit:10;stroke-width:3px;}</style></defs><g id="Camera"><rect class="cls-1" x="16.34" y="12.65" width="19.24" height="3.08" rx="1.18"/><path d="M45.23,14.64H6.54a3.49,3.49,0,0,0-3.49,3.49v19a3.49,3.49,0,0,0,3.49,3.49H45.23a3.49,3.49,0,0,0,3.49-3.49v-19A3.49,3.49,0,0,0,45.23,14.64Zm-19.31,22a9.7,9.7,0,1,1,9.69-9.69A9.71,9.71,0,0,1,25.92,36.6Zm9.2-17.93a.79.79,0,1,1,.79-.79A.79.79,0,0,1,35.12,18.67Z"/><path d="M25.92,18.21a8.7,8.7,0,1,0,8.69,8.7A8.71,8.71,0,0,0,25.92,18.21Z"/><polygon points="11.71 14.32 8.45 14.32 9.01 13.05 11.15 13.05 11.71 14.32"/></g></svg>