<svg id="Layer_1" data-name="Layer 1" xmlns="http://www.w3.org/2000/svg" viewBox="0 0 52 51.8"><g id="Keyboard"><path d="M47.5,15.43H4.5a1.34,1.34,0,0,0-1.33,1.33V35A1.34,1.34,0,0,0,4.5,36.37h43A1.34,1.34,0,0,0,48.83,35V16.76A1.34,1.34,0,0,0,47.5,15.43ZM29.15,16.77a.55.55,0,0,1,.55-.55h2.41a.56.56,0,0,1,.56.55v2.41a.56.56,0,0,1-.56.56H29.7a.56.56,0,0,1-.55-.56Zm0,5a.55.55,0,0,1,.55-.55h2.41a.56.56,0,0,1,.56.55v2.41a.56.56,0,0,1-.56.56H29.7a.56.56,0,0,1-.55-.56Zm0,5a.55.55,0,0,1,.55-.55h2.41a.56.56,0,0,1,.56.55v2.41a.56.56,0,0,1-.56.56H29.7a.56.56,0,0,1-.55-.56Zm-5-10a.55.55,0,0,1,.55-.55h2.41a.56.56,0,0,1,.56.55v2.41a.56.56,0,0,1-.56.56H24.7a.56.56,0,0,1-.55-.56Zm0,5a.55.55,0,0,1,.55-.55h2.41a.56.56,0,0,1,.56.55v2.41a.56.56,0,0,1-.56.56H24.7a.56.56,0,0,1-.55-.56Zm0,5a.55.55,0,0,1,.55-.55h2.41a.56.56,0,0,1,.56.55v2.41a.56.56,0,0,1-.56.56H24.7a.56.56,0,0,1-.55-.56Zm-5-10a.55.55,0,0,1,.55-.55h2.41a.56.56,0,0,1,.56.55v2.41a.56.56,0,0,1-.56.56H19.7a.56.56,0,0,1-.55-.56Zm0,5a.55.55,0,0,1,.55-.55h2.41a.56.56,0,0,1,.56.55v2.41a.56.56,0,0,1-.56.56H19.7a.56.56,0,0,1-.55-.56Zm0,5a.55.55,0,0,1,.55-.55h2.41a.56.56,0,0,1,.56.55v2.41a.56.56,0,0,1-.56.56H19.7a.56.56,0,0,1-.55-.56Zm-5-10a.55.55,0,0,1,.55-.55h2.41a.56.56,0,0,1,.56.55v2.41a.56.56,0,0,1-.56.56H14.7a.56.56,0,0,1-.55-.56Zm0,5a.55.55,0,0,1,.55-.55h2.41a.56.56,0,0,1,.56.55v2.41a.56.56,0,0,1-.56.56H14.7a.56.56,0,0,1-.55-.56Zm0,5a.55.55,0,0,1,.55-.55h2.41a.56.56,0,0,1,.56.55v2.41a.56.56,0,0,1-.56.56H14.7a.56.56,0,0,1-.55-.56ZM7.67,34.18a.56.56,0,0,1-.56.56H4.7a.56.56,0,0,1-.55-.56V31.77a.55.55,0,0,1,.55-.55H7.11a.56.56,0,0,1,.56.55Zm0-5a.56.56,0,0,1-.56.56H4.7a.56.56,0,0,1-.55-.56V26.77a.55.55,0,0,1,.55-.55H7.11a.56.56,0,0,1,.56.55Zm0-5a.56.56,0,0,1-.56.56H4.7a.56.56,0,0,1-.55-.56V21.77a.55.55,0,0,1,.55-.55H7.11a.56.56,0,0,1,.56.55Zm0-5a.56.56,0,0,1-.56.56H4.7a.56.56,0,0,1-.55-.56V16.77a.55.55,0,0,1,.55-.55H7.11a.56.56,0,0,1,.56.55Zm5,15a.56.56,0,0,1-.56.56H9.7a.56.56,0,0,1-.55-.56V31.77a.55.55,0,0,1,.55-.55h2.41a.56.56,0,0,1,.56.55Zm0-5a.56.56,0,0,1-.56.56H9.7a.56.56,0,0,1-.55-.56V26.77a.55.55,0,0,1,.55-.55h2.41a.56.56,0,0,1,.56.55Zm0-5a.56.56,0,0,1-.56.56H9.7a.56.56,0,0,1-.55-.56V21.77a.55.55,0,0,1,.55-.55h2.41a.56.56,0,0,1,.56.55Zm0-5a.56.56,0,0,1-.56.56H9.7a.56.56,0,0,1-.55-.56V16.77a.55.55,0,0,1,.55-.55h2.41a.56.56,0,0,1,.56.55Zm25,15a.56.56,0,0,1-.56.56H14.66a.56.56,0,0,1-.56-.56V31.77a.56.56,0,0,1,.56-.55H37.08a.56.56,0,0,1,.56.55Zm0-5a.56.56,0,0,1-.56.56H34.7a.56.56,0,0,1-.55-.56V26.77a.55.55,0,0,1,.55-.55h2.41a.56.56,0,0,1,.56.55Zm0-5a.56.56,0,0,1-.56.56H34.7a.56.56,0,0,1-.55-.56V21.77a.55.55,0,0,1,.55-.55h2.41a.56.56,0,0,1,.56.55Zm0-5a.56.56,0,0,1-.56.56H34.7a.56.56,0,0,1-.55-.56V16.77a.55.55,0,0,1,.55-.55h2.41a.56.56,0,0,1,.56.55Zm5,15a.56.56,0,0,1-.56.56H39.7a.56.56,0,0,1-.55-.56V31.77a.55.55,0,0,1,.55-.55h2.41a.56.56,0,0,1,.56.55Zm0-5a.56.56,0,0,1-.56.56H39.7a.56.56,0,0,1-.55-.56V26.77a.55.55,0,0,1,.55-.55h2.41a.56.56,0,0,1,.56.55Zm0-5a.56.56,0,0,1-.56.56H39.7a.56.56,0,0,1-.55-.56V21.77a.55.55,0,0,1,.55-.55h2.41a.56.56,0,0,1,.56.55Zm0-5a.56.56,0,0,1-.56.56H39.7a.56.56,0,0,1-.55-.56V16.77a.55.55,0,0,1,.55-.55h2.41a.56.56,0,0,1,.56.55Zm5,15a.56.56,0,0,1-.56.56H44.7a.56.56,0,0,1-.55-.56V31.77a.55.55,0,0,1,.55-.55h2.41a.56.56,0,0,1,.56.55Zm0-5a.56.56,0,0,1-.56.56H44.7a.56.56,0,0,1-.55-.56V26.77a.55.55,0,0,1,.55-.55h2.41a.56.56,0,0,1,.56.55Zm0-5a.56.56,0,0,1-.56.56H44.7a.56.56,0,0,1-.55-.56V21.77a.55.55,0,0,1,.55-.55h2.41a.56.56,0,0,1,.56.55Zm0-5a.56.56,0,0,1-.56.56H44.7a.56.56,0,0,1-.55-.56V16.77a.55.55,0,0,1,.55-.55h2.41a.56.56,0,0,1,.56.55Z"/></g></svg>