<svg id="Layer_1" data-name="Layer 1" xmlns="http://www.w3.org/2000/svg" viewBox="0 0 52 52"><g id="Photos"><path d="M16.57,29.52,24.29,35l11.47-16.2L48.94,39.11a3.74,3.74,0,0,0,.3-1.46V14.3a3.65,3.65,0,0,0-3.65-3.66H7.23A3.66,3.66,0,0,0,3.58,14.3V37.65A3.73,3.73,0,0,0,3.85,39Zm-3.5-16.85a4.75,4.75,0,1,1-4.75,4.75A4.75,4.75,0,0,1,13.07,12.67Z"/><circle cx="13.07" cy="17.42" r="3.75"/><path d="M24.53,36.34l-7.94-5.58L4.36,39.89a3.63,3.63,0,0,0,2.87,1.42H45.59A3.62,3.62,0,0,0,48.34,40L35.73,20.53Z"/></g></svg>