<svg id="Layer_1" data-name="Layer 1" xmlns="http://www.w3.org/2000/svg" viewBox="0 0 52 52"><defs><style>.cls-1{fill:none;}.cls-1,.cls-2{stroke:#000;stroke-linecap:round;stroke-miterlimit:10;stroke-width:1.5px;}</style></defs><g id="Privacy"><ellipse class="cls-1" cx="27.09" cy="21.25" rx="11.08" ry="13.48"/><path class="cls-2" d="M40.28,21.49H13a1.34,1.34,0,0,0-1.34,1.34v23.5A1.34,1.34,0,0,0,13,47.66h8.29V37.81a3.1,3.1,0,0,1,3.1-3.1h5.34a3.1,3.1,0,0,1,3.1,3.1v9.85h7.43a1.34,1.34,0,0,0,1.34-1.33V22.83A1.34,1.34,0,0,0,40.28,21.49ZM26.85,33.67a3.53,3.53,0,1,1,3.53-3.52A3.53,3.53,0,0,1,26.85,33.67Z"/></g></svg>