<svg id="Layer_1" data-name="Layer 1" xmlns="http://www.w3.org/2000/svg" viewBox="0 0 52 52"><defs><style>.cls-1{fill:none;stroke:#000;stroke-miterlimit:10;stroke-width:1.5px;}</style></defs><g id="Settings"><path class="cls-1" d="M41.19,25.05l3.67-2.79a14.2,14.2,0,0,0-1-3.82,14.68,14.68,0,0,0-1.91-3.23l-4.55.73-1.32-1.32c.24-1.51.48-3,.73-4.55a21.38,21.38,0,0,0-3.38-1.76A20.53,20.53,0,0,0,29.6,7.14L27,10.81H24.9Q23.66,9,22.4,7.14a18.48,18.48,0,0,0-4,1.17,19.21,19.21,0,0,0-3.23,1.76l.73,4.55-1.32,1.32-4.4-.73a16.08,16.08,0,0,0-1.91,3.23,16.29,16.29,0,0,0-1.17,4l3.67,2.79V27.1L7.14,29.74a21.16,21.16,0,0,0,1,3.38,22,22,0,0,0,1.91,3.67l4.55-.73,1.32,1.46c-.19,1.47-.39,2.94-.58,4.41a13.4,13.4,0,0,0,2.79,1.76,13.25,13.25,0,0,0,4.25,1.17l2.65-3.52H27l2.79,3.52a14.54,14.54,0,0,0,4.11-1.17,15.15,15.15,0,0,0,2.94-1.76l-.59-4.55,1.32-1.32,4.41.73a15.52,15.52,0,0,0,2.93-7.19L41.19,27ZM26,34.37A8.37,8.37,0,1,1,34.37,26,8.37,8.37,0,0,1,26,34.37Z"/></g></svg>